<svg xmlns="http://www.w3.org/2000/svg" width="20" height="20" fill="none"><path fill="#fff" d="M6.267 17.5a.937.937 0 1 0-.034-1.875.937.937 0 0 0 .034 1.874ZM15.958 16.585a.937.937 0 1 0-1.875-.045.937.937 0 0 0 1.875.045ZM18.117 5.164A.23.23 0 0 0 17.914 5L5.191 3.77c-.109-.012-.242-.082-.293-.184a3.978 3.978 0 0 0-.476-.727c-.3-.367-.867-.355-1.906-.363-.352-.004-.637.203-.637.55 0 .34.27.552.61.552.34 0 .831.02 1.015.074.183.055.332.355.387.617 0 .004 0 .008.004.012.007.047.078.398.078.402l1.562 8.266c.094.566.285 1.035.567 1.394.328.422.761.633 1.285.633h9.242c.297 0 .55-.226.562-.523a.544.544 0 0 0-.546-.57H7.379c-.078 0-.191 0-.324-.11-.137-.117-.325-.387-.45-1.016l-.168-.925c0-.012.004-.02.016-.024l10.848-1.836a.228.228 0 0 0 .191-.203l.625-4.523a.223.223 0 0 0 0-.102Z"/></svg>