<svg width="20" height="21" viewBox="0 0 20 21" fill="none" xmlns="http://www.w3.org/2000/svg">
<g id="copy">
<path id="Vector" d="M16.6667 8H9.16667C8.24619 8 7.5 8.74619 7.5 9.66667V17.1667C7.5 18.0871 8.24619 18.8333 9.16667 18.8333H16.6667C17.5871 18.8333 18.3333 18.0871 18.3333 17.1667V9.66667C18.3333 8.74619 17.5871 8 16.6667 8Z" stroke="white" stroke-linecap="round" stroke-linejoin="round"/>
<path id="Vector_2" d="M4.16675 13.0001H3.33341C2.89139 13.0001 2.46746 12.8245 2.1549 12.5119C1.84234 12.1994 1.66675 11.7754 1.66675 11.3334V3.83341C1.66675 3.39139 1.84234 2.96746 2.1549 2.6549C2.46746 2.34234 2.89139 2.16675 3.33341 2.16675H10.8334C11.2754 2.16675 11.6994 2.34234 12.0119 2.6549C12.3245 2.96746 12.5001 3.39139 12.5001 3.83341V4.66675" stroke="white" stroke-linecap="round" stroke-linejoin="round"/>
</g>
</svg>
