<svg width="20" height="21" viewBox="0 0 20 21" fill="none" xmlns="http://www.w3.org/2000/svg">
<g id="edit">
<path id="Vector" d="M9.16675 3.83325H3.33341C2.89139 3.83325 2.46746 4.00885 2.1549 4.32141C1.84234 4.63397 1.66675 5.05789 1.66675 5.49992V17.1666C1.66675 17.6086 1.84234 18.0325 2.1549 18.3451C2.46746 18.6577 2.89139 18.8333 3.33341 18.8333H15.0001C15.4421 18.8333 15.866 18.6577 16.1786 18.3451C16.4912 18.0325 16.6667 17.6086 16.6667 17.1666V11.3333" stroke="white" stroke-linecap="round" stroke-linejoin="round"/>
<path id="Vector_2" d="M15.4167 2.58344C15.7483 2.25192 16.1979 2.06567 16.6667 2.06567C17.1356 2.06567 17.5852 2.25192 17.9167 2.58344C18.2483 2.91496 18.4345 3.3646 18.4345 3.83344C18.4345 4.30228 18.2483 4.75192 17.9167 5.08344L10.0001 13.0001L6.66675 13.8334L7.50008 10.5001L15.4167 2.58344Z" stroke="white" stroke-linecap="round" stroke-linejoin="round"/>
</g>
</svg>
