<svg xmlns="http://www.w3.org/2000/svg" width="20" height="20" fill="none"><path fill="#fff" d="M13.75 2.188h-.04c-1.55 0-2.92.82-3.71 2.03-.79-1.21-2.16-2.03-3.71-2.03h-.04a4.416 4.416 0 0 0-4.375 4.414c0 1.445.633 3.496 1.867 5.183C6.094 15 10 17.812 10 17.812s3.906-2.812 6.258-6.027c1.234-1.687 1.867-3.738 1.867-5.183a4.416 4.416 0 0 0-4.375-4.415Zm1.625 8.953c-1.664 2.277-4.2 4.379-5.375 5.296-1.176-.918-3.71-3.023-5.375-5.3C3.48 9.574 2.969 7.734 2.969 6.602c0-.883.344-1.711.96-2.336a3.299 3.299 0 0 1 2.329-.98h.035c.559 0 1.113.144 1.605.421.477.27.891.652 1.188 1.113a1.099 1.099 0 0 0 1.836 0c.3-.46.71-.843 1.187-1.113a3.275 3.275 0 0 1 1.606-.422h.035a3.306 3.306 0 0 1 2.328.98c.621.626.961 1.458.961 2.337-.008 1.132-.52 2.972-1.664 4.539Z"/></svg>