<svg xmlns="http://www.w3.org/2000/svg" width="20" height="20" fill="none"><path fill="#fff" d="m17.324 16.414-4.172-4.21A5.977 5.977 0 0 0 8.48 2.496a5.98 5.98 0 0 0-5.98 5.98c0 3.3 2.676 5.976 5.98 5.976 1.43 0 2.739-.5 3.77-1.336l4.145 4.184a.64.64 0 0 0 .906.023.646.646 0 0 0 .023-.91ZM8.48 13.168a4.666 4.666 0 0 1-3.32-1.375 4.663 4.663 0 0 1-1.375-3.316A4.65 4.65 0 0 1 5.16 5.16a4.666 4.666 0 0 1 3.32-1.375c1.254 0 2.434.488 3.32 1.375a4.663 4.663 0 0 1 1.376 3.317 4.65 4.65 0 0 1-1.375 3.316 4.666 4.666 0 0 1-3.32 1.375Z"/></svg>