<svg width="36" height="35" viewBox="0 0 36 35" fill="none" xmlns="http://www.w3.org/2000/svg">
<g id="Frame">
<g id="Union">
<path d="M26.9204 8.09495C27.4552 8.62973 27.7556 9.35507 27.7556 10.1114V20.4826C27.2616 20.3619 26.7454 20.298 26.2142 20.298C25.7653 20.298 25.3271 20.3437 24.904 20.4306V10.1114L19.4453 4.65268H7.79404V27.466H19.777C19.8883 28.5109 20.2483 29.4816 20.7966 30.3176H7.79404C6.21911 30.3176 4.94238 29.0409 4.94238 27.466V4.65268C4.94238 3.07776 6.21911 1.80103 7.79404 1.80103H19.4453C20.2016 1.80103 20.9269 2.10146 21.4617 2.63625L26.9204 8.09495Z" fill="#6D6D6D"/>
<path d="M20.4723 17.6004C21.2598 17.6004 21.8982 16.962 21.8982 16.1745C21.8982 15.387 21.2598 14.7487 20.4723 14.7487H11.9174C11.1299 14.7487 10.4916 15.387 10.4916 16.1745C10.4916 16.962 11.1299 17.6004 11.9174 17.6004H20.4723Z" fill="#6D6D6D"/>
<path d="M19.0465 21.878C19.0465 22.6655 18.4082 23.3038 17.6207 23.3038H11.9174C11.1299 23.3038 10.4916 22.6655 10.4916 21.878C10.4916 21.0905 11.1299 20.4522 11.9174 20.4522H17.6207C18.4082 20.4522 19.0465 21.0905 19.0465 21.878Z" fill="#6D6D6D"/>
<path fill-rule="evenodd" clip-rule="evenodd" d="M32.3067 26.7681C32.3067 30.0009 29.6861 32.6215 26.4533 32.6215C23.2206 32.6215 20.5999 30.0009 20.5999 26.7681C20.5999 23.5354 23.2206 20.9147 26.4533 20.9147C29.6861 20.9147 32.3067 23.5354 32.3067 26.7681ZM26.024 28.0587C26.024 28.2981 26.2181 28.4923 26.4576 28.4923C26.697 28.4923 26.8912 28.2981 26.8912 28.0587V26.9747H27.9751C28.2146 26.9747 28.4087 26.7806 28.4087 26.5411C28.4087 26.3017 28.2146 26.1075 27.9751 26.1075H26.8912V25.0236C26.8912 24.7841 26.697 24.59 26.4576 24.59C26.2181 24.59 26.024 24.7841 26.024 25.0236V26.1075H24.94C24.7005 26.1075 24.5064 26.3017 24.5064 26.5411C24.5064 26.7806 24.7005 26.9747 24.94 26.9747H26.024V28.0587Z" fill="#6D6D6D"/>
</g>
</g>
</svg>
